<svg width="16" height="16" viewBox="0 0 16 16" fill="none" xmlns="http://www.w3.org/2000/svg">
<path fill-rule="evenodd" clip-rule="evenodd" d="M4.66671 1.83334C3.1019 1.83334 1.83337 3.10187 1.83337 4.66668V11.3333C1.83337 12.8982 3.1019 14.1667 4.66671 14.1667H11.3334C12.8982 14.1667 14.1667 12.8982 14.1667 11.3333V4.66668C14.1667 3.10187 12.8982 1.83334 11.3334 1.83334H4.66671ZM0.833374 4.66668C0.833374 2.54959 2.54962 0.833344 4.66671 0.833344H11.3334C13.4505 0.833344 15.1667 2.54959 15.1667 4.66668V11.3333C15.1667 13.4504 13.4505 15.1667 11.3334 15.1667H4.66671C2.54962 15.1667 0.833374 13.4504 0.833374 11.3333V4.66668Z" fill="#02587B"/>
<path fill-rule="evenodd" clip-rule="evenodd" d="M8.34667 5.82791C7.89587 5.76107 7.43547 5.83807 7.03095 6.04796C6.62643 6.25786 6.2984 6.58996 6.09351 6.99703C5.88862 7.40411 5.8173 7.86542 5.8897 8.31536C5.96211 8.7653 6.17454 9.18096 6.49679 9.50321C6.81904 9.82546 7.23469 10.0379 7.68463 10.1103C8.13458 10.1827 8.59589 10.1114 9.00296 9.90649C9.41004 9.70159 9.74214 9.37356 9.95204 8.96905C10.1619 8.56453 10.2389 8.10413 10.1721 7.65333C10.1039 7.1935 9.88963 6.76779 9.56092 6.43908C9.23221 6.11037 8.8065 5.8961 8.34667 5.82791ZM6.57038 5.16034C7.1616 4.85357 7.83449 4.74103 8.49335 4.83873C9.16541 4.93839 9.78761 5.25155 10.268 5.73197C10.7484 6.21239 11.0616 6.83458 11.1613 7.50665C11.259 8.16551 11.1464 8.8384 10.8397 9.42962C10.5329 10.0208 10.0475 10.5003 9.45256 10.7997C8.8576 11.0992 8.18337 11.2034 7.52576 11.0976C6.86816 10.9918 6.26066 10.6813 5.78968 10.2103C5.3187 9.73934 5.00822 9.13184 4.9024 8.47423C4.79659 7.81662 4.90082 7.1424 5.20028 6.54744C5.49973 5.95249 5.97916 5.46711 6.57038 5.16034Z" fill="#02587B"/>
<path fill-rule="evenodd" clip-rule="evenodd" d="M11.1666 4.33334C11.1666 4.0572 11.3905 3.83334 11.6666 3.83334H11.6733C11.9494 3.83334 12.1733 4.0572 12.1733 4.33334C12.1733 4.60949 11.9494 4.83334 11.6733 4.83334H11.6666C11.3905 4.83334 11.1666 4.60949 11.1666 4.33334Z" fill="#02587B"/>
</svg>
