<svg width="16" height="16" viewBox="0 0 16 16" fill="none" xmlns="http://www.w3.org/2000/svg">
<path fill-rule="evenodd" clip-rule="evenodd" d="M1.09418 10.4275C1.68805 9.83363 2.4935 9.5 3.33335 9.5H8.66669C9.50654 9.5 10.312 9.83363 10.9059 10.4275C11.4997 11.0214 11.8334 11.8268 11.8334 12.6667V14C11.8334 14.2761 11.6095 14.5 11.3334 14.5C11.0572 14.5 10.8334 14.2761 10.8334 14V12.6667C10.8334 12.092 10.6051 11.5409 10.1988 11.1346C9.79242 10.7283 9.24132 10.5 8.66669 10.5H3.33335C2.75872 10.5 2.20762 10.7283 1.80129 11.1346C1.39496 11.5409 1.16669 12.092 1.16669 12.6667V14C1.16669 14.2761 0.942829 14.5 0.666687 14.5C0.390545 14.5 0.166687 14.2761 0.166687 14V12.6667C0.166687 11.8268 0.500317 11.0214 1.09418 10.4275Z" fill="#02587B"/>
<path fill-rule="evenodd" clip-rule="evenodd" d="M5.99998 2.5C4.80336 2.5 3.83331 3.47005 3.83331 4.66667C3.83331 5.86328 4.80336 6.83333 5.99998 6.83333C7.1966 6.83333 8.16665 5.86328 8.16665 4.66667C8.16665 3.47005 7.1966 2.5 5.99998 2.5ZM2.83331 4.66667C2.83331 2.91776 4.25108 1.5 5.99998 1.5C7.74888 1.5 9.16665 2.91776 9.16665 4.66667C9.16665 6.41557 7.74888 7.83333 5.99998 7.83333C4.25108 7.83333 2.83331 6.41557 2.83331 4.66667Z" fill="#02587B"/>
<path fill-rule="evenodd" clip-rule="evenodd" d="M12.8493 9.96167C12.9183 9.6943 13.191 9.53351 13.4584 9.60255C14.1377 9.77795 14.7396 10.174 15.1695 10.7285C15.5993 11.2831 15.8328 11.9647 15.8334 12.6663L15.8334 12.6667L15.8334 14C15.8334 14.2761 15.6095 14.5 15.3334 14.5C15.0572 14.5 14.8334 14.2761 14.8334 14V12.667C14.8334 12.667 14.8334 12.6669 14.8334 12.6669C14.833 12.1869 14.6732 11.7206 14.3791 11.3412C14.085 10.9618 13.6732 10.6908 13.2084 10.5708C12.941 10.5018 12.7802 10.229 12.8493 9.96167Z" fill="#02587B"/>
<path fill-rule="evenodd" clip-rule="evenodd" d="M10.1822 1.96265C10.2507 1.69514 10.5231 1.5338 10.7906 1.60229C11.4718 1.7767 12.0755 2.17285 12.5067 2.72829C12.9378 3.28373 13.1719 3.96687 13.1719 4.67C13.1719 5.37314 12.9378 6.05627 12.5067 6.61171C12.0755 7.16715 11.4718 7.5633 10.7906 7.73771C10.5231 7.8062 10.2507 7.64487 10.1822 7.37735C10.1138 7.10984 10.2751 6.83745 10.5426 6.76896C11.0087 6.64963 11.4217 6.37858 11.7167 5.99854C12.0117 5.6185 12.1719 5.15109 12.1719 4.67C12.1719 4.18891 12.0117 3.7215 11.7167 3.34146C11.4217 2.96142 11.0087 2.69037 10.5426 2.57104C10.2751 2.50255 10.1138 2.23016 10.1822 1.96265Z" fill="#02587B"/>
</svg>
