<svg width="16" height="16" viewBox="0 0 16 16" fill="none" xmlns="http://www.w3.org/2000/svg">
<path fill-rule="evenodd" clip-rule="evenodd" d="M2.83337 8C2.83337 7.72386 3.05723 7.5 3.33337 7.5H12.6667C12.9429 7.5 13.1667 7.72386 13.1667 8C13.1667 8.27614 12.9429 8.5 12.6667 8.5H3.33337C3.05723 8.5 2.83337 8.27614 2.83337 8Z" fill="#02587B"/>
<path fill-rule="evenodd" clip-rule="evenodd" d="M8.35359 2.97979C8.54886 3.17505 8.54886 3.49163 8.35359 3.6869L4.04048 8.00001L8.35359 12.3131C8.54886 12.5084 8.54886 12.825 8.35359 13.0202C8.15833 13.2155 7.84175 13.2155 7.64649 13.0202L2.97982 8.35356C2.78456 8.1583 2.78456 7.84172 2.97982 7.64646L7.64649 2.97979C7.84175 2.78453 8.15833 2.78453 8.35359 2.97979Z" fill="#02587B"/>
</svg>
