<svg width="16" height="16" viewBox="0 0 16 16" fill="none" xmlns="http://www.w3.org/2000/svg">
<path fill-rule="evenodd" clip-rule="evenodd" d="M2.66671 3.16666C2.20952 3.16666 1.83337 3.5428 1.83337 3.99999V12C1.83337 12.4572 2.20952 12.8333 2.66671 12.8333H13.3334C13.7906 12.8333 14.1667 12.4572 14.1667 12V3.99999C14.1667 3.5428 13.7906 3.16666 13.3334 3.16666H2.66671ZM0.833374 3.99999C0.833374 2.99051 1.65723 2.16666 2.66671 2.16666H13.3334C14.3428 2.16666 15.1667 2.99051 15.1667 3.99999V12C15.1667 13.0095 14.3428 13.8333 13.3334 13.8333H2.66671C1.65723 13.8333 0.833374 13.0095 0.833374 12V3.99999Z" fill="#02587B"/>
<path fill-rule="evenodd" clip-rule="evenodd" d="M0.923679 3.71328C1.08204 3.48706 1.3938 3.43204 1.62003 3.5904L7.99996 8.05635L14.3799 3.5904C14.6061 3.43204 14.9179 3.48706 15.0762 3.71328C15.2346 3.93951 15.1796 4.25127 14.9534 4.40963L8.28669 9.0763C8.11453 9.19681 7.88539 9.19681 7.71323 9.0763L1.04656 4.40963C0.820339 4.25127 0.765322 3.93951 0.923679 3.71328Z" fill="#02587B"/>
</svg>
