<svg width="16" height="16" viewBox="0 0 16 16" fill="none" xmlns="http://www.w3.org/2000/svg">
<path fill-rule="evenodd" clip-rule="evenodd" d="M2.66663 7.5C2.94277 7.5 3.16663 7.72386 3.16663 8V14.1667H12.8333V8C12.8333 7.72386 13.0571 7.5 13.3333 7.5C13.6094 7.5 13.8333 7.72386 13.8333 8V14.6667C13.8333 14.9428 13.6094 15.1667 13.3333 15.1667H2.66663C2.39048 15.1667 2.16663 14.9428 2.16663 14.6667V8C2.16663 7.72386 2.39048 7.5 2.66663 7.5Z" fill="#02587B"/>
<path fill-rule="evenodd" clip-rule="evenodd" d="M0.833374 4.66666C0.833374 4.39051 1.05723 4.16666 1.33337 4.16666H14.6667C14.9429 4.16666 15.1667 4.39051 15.1667 4.66666V7.99999C15.1667 8.27613 14.9429 8.49999 14.6667 8.49999H1.33337C1.05723 8.49999 0.833374 8.27613 0.833374 7.99999V4.66666ZM1.83337 5.16666V7.49999H14.1667V5.16666H1.83337Z" fill="#02587B"/>
<path fill-rule="evenodd" clip-rule="evenodd" d="M8 4.16666C8.27614 4.16666 8.5 4.39051 8.5 4.66666V14.6667C8.5 14.9428 8.27614 15.1667 8 15.1667C7.72386 15.1667 7.5 14.9428 7.5 14.6667V4.66666C7.5 4.39051 7.72386 4.16666 8 4.16666Z" fill="#02587B"/>
<path fill-rule="evenodd" clip-rule="evenodd" d="M5.00004 1.83334C4.69062 1.83334 4.39388 1.95626 4.17508 2.17505C3.95629 2.39384 3.83337 2.69059 3.83337 3.00001C3.83337 3.30943 3.95629 3.60618 4.17508 3.82497C4.39388 4.04376 4.69062 4.16668 5.00004 4.16668H7.34003C7.24777 3.89536 7.11595 3.56646 6.93693 3.24097C6.50787 2.46085 5.88866 1.83334 5.00004 1.83334ZM8.00004 4.66668C8.49033 4.56862 8.4903 4.56844 8.49026 4.56826L8.49017 4.56782L8.48995 4.56671L8.48931 4.56359L8.48726 4.55375L8.47996 4.52026C8.47365 4.492 8.46439 4.45209 8.45191 4.40218C8.42698 4.30247 8.38908 4.16224 8.33609 3.9949C8.23067 3.662 8.06274 3.21285 7.81315 2.75905C7.32555 1.8725 6.44476 0.833344 5.00004 0.833344C4.42541 0.833344 3.8743 1.06162 3.46798 1.46795C3.06165 1.87427 2.83337 2.42537 2.83337 3.00001C2.83337 3.57465 3.06165 4.12575 3.46798 4.53207C3.8743 4.9384 4.42541 5.16668 5.00004 5.16668H8.00004C8.14984 5.16668 8.29174 5.09951 8.38671 4.98367C8.48168 4.86783 8.51971 4.71551 8.49033 4.56862L8.00004 4.66668Z" fill="#02587B"/>
<path fill-rule="evenodd" clip-rule="evenodd" d="M8.1869 2.75905C8.6745 1.8725 9.55529 0.833344 11 0.833344C11.5746 0.833344 12.1257 1.06162 12.5321 1.46795C12.9384 1.87427 13.1667 2.42537 13.1667 3.00001C13.1667 3.57465 12.9384 4.12575 12.5321 4.53207C12.1257 4.9384 11.5746 5.16668 11 5.16668H8C7.85021 5.16668 7.7083 5.09951 7.61333 4.98367C7.51836 4.86783 7.48034 4.71551 7.50971 4.56862L8 4.66668C7.50971 4.56862 7.50968 4.56881 7.50971 4.56862L7.5101 4.56671L7.51074 4.56359L7.51279 4.55375L7.52008 4.52026C7.52639 4.492 7.53566 4.45209 7.54814 4.40218C7.57306 4.30247 7.61096 4.16224 7.66396 3.9949C7.76938 3.662 7.93731 3.21285 8.1869 2.75905ZM8.66002 4.16668H11C11.3094 4.16668 11.6062 4.04376 11.825 3.82497C12.0438 3.60618 12.1667 3.30943 12.1667 3.00001C12.1667 2.69059 12.0438 2.39384 11.825 2.17505C11.6062 1.95626 11.3094 1.83334 11 1.83334C10.1114 1.83334 9.49218 2.46085 9.06311 3.24097C8.88409 3.56646 8.75228 3.89536 8.66002 4.16668Z" fill="#02587B"/>
</svg>
