<svg width="16" height="16" viewBox="0 0 16 16" fill="none" xmlns="http://www.w3.org/2000/svg">
<path fill-rule="evenodd" clip-rule="evenodd" d="M6 10H7V15H9V10H10V16H6V10Z" fill="#02587B"/>
<path fill-rule="evenodd" clip-rule="evenodd" d="M5 15.5C5 15.2239 5.19188 15 5.42857 15H10.5714C10.8081 15 11 15.2239 11 15.5C11 15.7761 10.8081 16 10.5714 16H5.42857C5.19188 16 5 15.7761 5 15.5Z" fill="#02587B"/>
<path fill-rule="evenodd" clip-rule="evenodd" d="M10.9923 4.90153L10.9999 4.02677L11 4C11 2.34315 9.65685 1 8 1C6.34315 1 5 2.34315 5 4L5.00012 4.02675L5.0077 4.90152L4.14171 5.02535C2.93106 5.19847 2 6.24137 2 7.5C2 8.88071 3.11929 10 4.5 10H11.5C12.8807 10 14 8.88071 14 7.5C14 6.24136 13.0689 5.19847 11.8583 5.02535L10.9923 4.90153ZM12 4L11.9998 4.03542C13.6961 4.27797 15 5.73671 15 7.5C15 9.433 13.433 11 11.5 11H4.5C2.567 11 1 9.433 1 7.5C1 5.73671 2.30393 4.27797 4.00015 4.03542L4 4C4 1.79086 5.79086 0 8 0C10.2091 0 12 1.79086 12 4Z" fill="#02587B"/>
</svg>
